<svg xmlns="http://www.w3.org/2000/svg" xmlns:xlink="http://www.w3.org/1999/xlink" id="body_1" preserveAspectRatio="xMinYMin meet" viewBox="0 0 793 1121"><defs><clipPath id="1"><path id="" clip-rule="evenodd" transform="matrix(1 0 0 1 0 0)" d="M0 841L0 -0.9000244L0 -0.9000244L595.3 -0.9000244L595.3 -0.9000244L595.3 841L595.3 841L0 841z" /></clipPath><clipPath id="2"><path id="" clip-rule="evenodd" transform="matrix(1 0 0 1 0 0)" d="M84.9 99.20001L143.1 99.20001L143.1 99.20001L143.1 122.45L143.1 122.45L84.9 122.45z" /></clipPath><clipPath id="3"><path id="" clip-rule="evenodd" transform="matrix(1 0 0 1 0 0)" d="M141.6 99.20001L512.5 99.20001L512.5 99.20001L512.5 122.45L512.5 122.45L141.6 122.45z" /></clipPath><clipPath id="4"><path id="" clip-rule="evenodd" transform="matrix(1 0 0 1 0 0)" d="M141.6 120.95L218.7 120.95L218.7 120.95L218.7 144.2L218.7 144.2L141.6 144.2z" /></clipPath><clipPath id="5"><path id="" clip-rule="evenodd" transform="matrix(1 0 0 1 0 0)" d="M217.2 120.95L512.5 120.95L512.5 120.95L512.5 144.2L512.5 144.2L217.2 144.2z" /></clipPath><clipPath id="6"><path id="" clip-rule="evenodd" transform="matrix(1 0 0 1 0 0)" d="M141.6 142.7L218.7 142.7L218.7 142.7L218.7 165.95L218.7 165.95L141.6 165.95z" /></clipPath><clipPath id="7"><path id="" clip-rule="evenodd" transform="matrix(1 0 0 1 0 0)" d="M217.2 142.7L512.5 142.7L512.5 142.7L512.5 165.95L512.5 165.95L217.2 165.95z" /></clipPath><clipPath id="8"><path id="" clip-rule="evenodd" transform="matrix(1 0 0 1 0 0)" d="M141.6 164.45L218.7 164.45L218.7 164.45L218.7 187.7L218.7 187.7L141.6 187.7z" /></clipPath><clipPath id="9"><path id="" clip-rule="evenodd" transform="matrix(1 0 0 1 0 0)" d="M217.2 164.45L512.5 164.45L512.5 164.45L512.5 187.7L512.5 187.7L217.2 187.7z" /></clipPath><clipPath id="10"><path id="" clip-rule="evenodd" transform="matrix(1 0 0 1 0 0)" d="M141.6 186.2L218.7 186.2L218.7 186.2L218.7 209.45L218.7 209.45L141.6 209.45z" /></clipPath><clipPath id="11"><path id="" clip-rule="evenodd" transform="matrix(1 0 0 1 0 0)" d="M217.2 186.2L512.5 186.2L512.5 186.2L512.5 209.45L512.5 209.45L217.2 209.45z" /></clipPath><clipPath id="12"><path id="" clip-rule="evenodd" transform="matrix(1 0 0 1 0 0)" d="M84.9 120.95L143.1 120.95L143.1 120.95L143.1 231.2L143.1 231.2L84.9 231.2z" /></clipPath><clipPath id="13"><path id="" clip-rule="evenodd" transform="matrix(1 0 0 1 0 0)" d="M141.6 207.95L218.7 207.95L218.7 207.95L218.7 231.2L218.7 231.2L141.6 231.2z" /></clipPath><clipPath id="14"><path id="" clip-rule="evenodd" transform="matrix(1 0 0 1 0 0)" d="M217.2 207.95L512.5 207.95L512.5 207.95L512.5 231.2L512.5 231.2L217.2 231.2z" /></clipPath><clipPath id="15"><path id="" clip-rule="evenodd" transform="matrix(1 0 0 1 0 0)" d="M141.6 229.7L218.7 229.7L218.7 229.7L218.7 252.95L218.7 252.95L141.6 252.95z" /></clipPath><clipPath id="16"><path id="" clip-rule="evenodd" transform="matrix(1 0 0 1 0 0)" d="M217.2 229.7L512.5 229.7L512.5 229.7L512.5 252.95L512.5 252.95L217.2 252.95z" /></clipPath><clipPath id="17"><path id="" clip-rule="evenodd" transform="matrix(1 0 0 1 0 0)" d="M141.6 251.45L218.7 251.45L218.7 251.45L218.7 274.7L218.7 274.7L141.6 274.7z" /></clipPath><clipPath id="18"><path id="" clip-rule="evenodd" transform="matrix(1 0 0 1 0 0)" d="M217.2 251.45L512.5 251.45L512.5 251.45L512.5 274.7L512.5 274.7L217.2 274.7z" /></clipPath><clipPath id="19"><path id="" clip-rule="evenodd" transform="matrix(1 0 0 1 0 0)" d="M141.6 273.2L218.7 273.2L218.7 273.2L218.7 296.45L218.7 296.45L141.6 296.45z" /></clipPath><clipPath id="20"><path id="" clip-rule="evenodd" transform="matrix(1 0 0 1 0 0)" d="M217.2 273.2L512.5 273.2L512.5 273.2L512.5 296.45L512.5 296.45L217.2 296.45z" /></clipPath><clipPath id="21"><path id="" clip-rule="evenodd" transform="matrix(1 0 0 1 0 0)" d="M141.6 294.95L218.7 294.95L218.7 294.95L218.7 318.2L218.7 318.2L141.6 318.2z" /></clipPath><clipPath id="22"><path id="" clip-rule="evenodd" transform="matrix(1 0 0 1 0 0)" d="M217.2 294.95L316.35 294.95L316.35 294.95L316.35 318.2L316.35 318.2L217.2 318.2z" /></clipPath><clipPath id="23"><path id="" clip-rule="evenodd" transform="matrix(1 0 0 1 0 0)" d="M314.85 294.95L401.85 294.95L401.85 294.95L401.85 318.2L401.85 318.2L314.85 318.2z" /></clipPath><clipPath id="24"><path id="" clip-rule="evenodd" transform="matrix(1 0 0 1 0 0)" d="M400.35 294.95L512.5 294.95L512.5 294.95L512.5 318.2L512.5 318.2L400.35 318.2z" /></clipPath><clipPath id="25"><path id="" clip-rule="evenodd" transform="matrix(1 0 0 1 0 0)" d="M141.6 316.7L218.7 316.7L218.7 316.7L218.7 365.5L218.7 365.5L141.6 365.5z" /></clipPath><clipPath id="26"><path id="" clip-rule="evenodd" transform="matrix(1 0 0 1 0 0)" d="M217.2 316.7L512.5 316.7L512.5 316.7L512.5 365.5L512.5 365.5L217.2 365.5z" /></clipPath><clipPath id="27"><path id="" clip-rule="evenodd" transform="matrix(1 0 0 1 0 0)" d="M141.6 364L218.7 364L218.7 364L218.7 397.2L218.7 397.2L141.6 397.2z" /></clipPath><clipPath id="28"><path id="" clip-rule="evenodd" transform="matrix(1 0 0 1 0 0)" d="M217.2 364L512.5 364L512.5 364L512.5 397.2L512.5 397.2L217.2 397.2z" /></clipPath><clipPath id="29"><path id="" clip-rule="evenodd" transform="matrix(1 0 0 1 0 0)" d="M84.9 229.7L143.1 229.7L143.1 229.7L143.1 418.95L143.1 418.95L84.9 418.95z" /></clipPath><clipPath id="30"><path id="" clip-rule="evenodd" transform="matrix(1 0 0 1 0 0)" d="M141.6 395.7L218.7 395.7L218.7 395.7L218.7 418.95L218.7 418.95L141.6 418.95z" /></clipPath><clipPath id="31"><path id="" clip-rule="evenodd" transform="matrix(1 0 0 1 0 0)" d="M217.2 395.7L316.35 395.7L316.35 395.7L316.35 418.95L316.35 418.95L217.2 418.95z" /></clipPath><clipPath id="32"><path id="" clip-rule="evenodd" transform="matrix(1 0 0 1 0 0)" d="M314.85 395.7L401.85 395.7L401.85 395.7L401.85 418.95L401.85 418.95L314.85 418.95z" /></clipPath><clipPath id="33"><path id="" clip-rule="evenodd" transform="matrix(1 0 0 1 0 0)" d="M400.35 395.7L451.35 395.7L451.35 395.7L451.35 418.95L451.35 418.95L400.35 418.95z" /></clipPath><clipPath id="34"><path id="" clip-rule="evenodd" transform="matrix(1 0 0 1 0 0)" d="M449.85 395.7L512.5 395.7L512.5 395.7L512.5 418.95L512.5 418.95L449.85 418.95z" /></clipPath><clipPath id="35"><path id="" clip-rule="evenodd" transform="matrix(1 0 0 1 0 0)" d="M84.9 417.45L143.1 417.45L143.1 417.45L143.1 440.7L143.1 440.7L84.9 440.7z" /></clipPath><clipPath id="36"><path id="" clip-rule="evenodd" transform="matrix(1 0 0 1 0 0)" d="M141.6 417.45L512.5 417.45L512.5 417.45L512.5 440.7L512.5 440.7L141.6 440.7z" /></clipPath></defs><g transform="matrix(1.333333 0 0 1.333333 0 0)"><g clip-path="url(#1)"><g clip-path="url(#2)"></g><g clip-path="url(#3)"></g><g clip-path="url(#4)"></g><g clip-path="url(#5)"></g><g clip-path="url(#6)"></g><g clip-path="url(#7)"></g><g clip-path="url(#8)"></g><g clip-path="url(#9)"></g><g clip-path="url(#10)"></g><g clip-path="url(#11)"></g><g clip-path="url(#12)"></g><g clip-path="url(#13)"></g><g clip-path="url(#14)"></g><g clip-path="url(#15)"></g><g clip-path="url(#16)"></g><g clip-path="url(#17)"></g><g clip-path="url(#18)"></g><g clip-path="url(#19)"></g><g clip-path="url(#20)"></g><g clip-path="url(#21)"></g><g clip-path="url(#22)"></g><g clip-path="url(#23)"></g><g clip-path="url(#24)"></g><g clip-path="url(#25)"></g><g clip-path="url(#26)"><g transform="matrix(0.3276445 0 0 0.3274652 223.35 322.27)"><g transform="matrix(1 0 0 1 0 0)"><image x="0" y="0" xlink:href="img_01.png" width="864" height="115" /></g></g></g><g clip-path="url(#27)"></g><g clip-path="url(#28)"></g><g clip-path="url(#29)"></g><g clip-path="url(#30)"></g><g clip-path="url(#31)"></g><g clip-path="url(#32)"></g><g clip-path="url(#33)"></g><g clip-path="url(#34)"></g><g clip-path="url(#35)"></g><g clip-path="url(#36)"></g><path id="146" transform="matrix(1 0 0 -1 0 841)" d="M85.65 740.8L85.65 401.3" stroke="#000000" stroke-width="0.5" fill="none" /><path id="147" transform="matrix(1 0 0 -1 0 841)" d="M142.35 740.8L142.35 719.55" stroke="#000000" stroke-width="0.5" fill="none" /><path id="148" transform="matrix(1 0 0 -1 0 841)" d="M142.35 719.05L142.35 610.8" stroke="#000000" stroke-width="0.5" fill="none" /><path id="149" transform="matrix(1 0 0 -1 0 841)" d="M142.35 610.3L142.35 423.05" stroke="#000000" stroke-width="0.5" fill="none" /><path id="150" transform="matrix(1 0 0 -1 0 841)" d="M142.35 422.55L142.35 401.3" stroke="#000000" stroke-width="0.5" fill="none" /><path id="151" transform="matrix(1 0 0 -1 0 841)" d="M511.75 740.8L511.75 401.3" stroke="#000000" stroke-width="0.5" fill="none" /><path id="152" transform="matrix(1 0 0 -1 0 841)" d="M217.95 719.05L217.95 697.8" stroke="#000000" stroke-width="0.5" fill="none" /><path id="153" transform="matrix(1 0 0 -1 0 841)" d="M217.95 697.3L217.95 676.05" stroke="#000000" stroke-width="0.5" fill="none" /><path id="154" transform="matrix(1 0 0 -1 0 841)" d="M217.95 675.55L217.95 654.3" stroke="#000000" stroke-width="0.5" fill="none" /><path id="155" transform="matrix(1 0 0 -1 0 841)" d="M217.95 653.8L217.95 632.55" stroke="#000000" stroke-width="0.5" fill="none" /><path id="156" transform="matrix(1 0 0 -1 0 841)" d="M217.95 632.05L217.95 610.8" stroke="#000000" stroke-width="0.5" fill="none" /><path id="157" transform="matrix(1 0 0 -1 0 841)" d="M217.95 610.3L217.95 589.05" stroke="#000000" stroke-width="0.5" fill="none" /><path id="158" transform="matrix(1 0 0 -1 0 841)" d="M217.95 588.55L217.95 567.3" stroke="#000000" stroke-width="0.5" fill="none" /><path id="159" transform="matrix(1 0 0 -1 0 841)" d="M217.95 566.8L217.95 545.55" stroke="#000000" stroke-width="0.5" fill="none" /><path id="160" transform="matrix(1 0 0 -1 0 841)" d="M217.95 545.05L217.95 523.8" stroke="#000000" stroke-width="0.5" fill="none" /><path id="161" transform="matrix(1 0 0 -1 0 841)" d="M217.95 523.3L217.95 476.5" stroke="#000000" stroke-width="0.5" fill="none" /><path id="162" transform="matrix(1 0 0 -1 0 841)" d="M217.95 476L217.95 444.8" stroke="#000000" stroke-width="0.5" fill="none" /><path id="163" transform="matrix(1 0 0 -1 0 841)" d="M217.95 444.3L217.95 423.05" stroke="#000000" stroke-width="0.5" fill="none" /><path id="164" transform="matrix(1 0 0 -1 0 841)" d="M315.6 545.05L315.6 523.8" stroke="#000000" stroke-width="0.5" fill="none" /><path id="165" transform="matrix(1 0 0 -1 0 841)" d="M401.1 545.05L401.1 523.8" stroke="#000000" stroke-width="0.5" fill="none" /><path id="166" transform="matrix(1 0 0 -1 0 841)" d="M315.6 444.3L315.6 423.05" stroke="#000000" stroke-width="0.5" fill="none" /><path id="167" transform="matrix(1 0 0 -1 0 841)" d="M401.1 444.3L401.1 423.05" stroke="#000000" stroke-width="0.5" fill="none" /><path id="168" transform="matrix(1 0 0 -1 0 841)" d="M450.6 444.3L450.6 423.05" stroke="#000000" stroke-width="0.5" fill="none" /><path id="169" transform="matrix(1 0 0 -1 0 841)" d="M85.4 741.05L512 741.05" stroke="#000000" stroke-width="0.5" fill="none" /><path id="170" transform="matrix(1 0 0 -1 0 841)" d="M85.9 719.3L511.5 719.3" stroke="#000000" stroke-width="0.5" fill="none" /><path id="171" transform="matrix(1 0 0 -1 0 841)" d="M142.6 697.55L511.5 697.55" stroke="#000000" stroke-width="0.5" fill="none" /><path id="172" transform="matrix(1 0 0 -1 0 841)" d="M142.6 675.8L511.5 675.8" stroke="#000000" stroke-width="0.5" fill="none" /><path id="173" transform="matrix(1 0 0 -1 0 841)" d="M142.6 654.05L511.5 654.05" stroke="#000000" stroke-width="0.5" fill="none" /><path id="174" transform="matrix(1 0 0 -1 0 841)" d="M142.6 632.3L511.5 632.3" stroke="#000000" stroke-width="0.5" fill="none" /><path id="175" transform="matrix(1 0 0 -1 0 841)" d="M85.9 610.55L511.5 610.55" stroke="#000000" stroke-width="0.5" fill="none" /><path id="176" transform="matrix(1 0 0 -1 0 841)" d="M142.6 588.8L511.5 588.8" stroke="#000000" stroke-width="0.5" fill="none" /><path id="177" transform="matrix(1 0 0 -1 0 841)" d="M142.6 567.05L511.5 567.05" stroke="#000000" stroke-width="0.5" fill="none" /><path id="178" transform="matrix(1 0 0 -1 0 841)" d="M142.6 545.3L511.5 545.3" stroke="#000000" stroke-width="0.5" fill="none" /><path id="179" transform="matrix(1 0 0 -1 0 841)" d="M142.6 523.55L511.5 523.55" stroke="#000000" stroke-width="0.5" fill="none" /><path id="180" transform="matrix(1 0 0 -1 0 841)" d="M142.6 476.25L511.5 476.25" stroke="#000000" stroke-width="0.5" fill="none" /><path id="181" transform="matrix(1 0 0 -1 0 841)" d="M142.6 444.55L511.5 444.55" stroke="#000000" stroke-width="0.5" fill="none" /><path id="182" transform="matrix(1 0 0 -1 0 841)" d="M85.9 422.8L511.5 422.8" stroke="#000000" stroke-width="0.5" fill="none" /><path id="183" transform="matrix(1 0 0 -1 0 841)" d="M85.4 401.05L512 401.05" stroke="#000000" stroke-width="0.5" fill="none" /></g></g></svg>